<svg width="21" height="20" viewBox="0 0 21 20" fill="none" xmlns="http://www.w3.org/2000/svg">
<path d="M12.73 0.905022H20.368V20H0V0L12.73 12.73V0.905022ZM1.273 18.727H16.917L1.273 3.08304V18.727ZM17.454 17.454L18.727 18.727H19.095V2.17802H14.003V3.45102H16.549V4.72402H14.003V5.99702H16.549V7.27001H14.003V8.54301H17.822V9.81601H14.003V11.089H16.549V12.362H14.003V13.635H16.549V14.908H14.908L16.181 16.181H17.822V17.454H17.454ZM3.819 10.184L9.81601 16.181H3.819V10.184ZM5.09199 13.267V14.908H6.73297L5.09199 13.267Z" fill="white" fill-opacity="0.8"/>
</svg>
